HIERARCHY
ROOT Hips
{
  OFFSET 5.88171 103.197 -191.271
  CHANNELS 6 Xposition Yposition Zposition Zrotation Xrotation Yrotation
  JOINT RightUpLeg
  {
    OFFSET -8.9458 -8.66707 0.101652
    CHANNELS 3 Zrotation Xrotation Yrotation
    JOINT RightLeg
    {
      OFFSET 0 -44.4227 1.3727
      CHANNELS 3 Zrotation Xrotation Yrotation
      JOINT RightFoot
      {
        OFFSET 0.253549 -42.0924 -1.46059
        CHANNELS 3 Zrotation Xrotation Yrotation
        JOINT RightToes
        {
          OFFSET 0.04 -4.41509 8.4991
          CHANNELS 3 Zrotation Xrotation Yrotation
          End Site
          {
            OFFSET -0.08 -0.137448 9.77979
          }
        }
      }
    }
  }
  JOINT Spine
  {
    OFFSET 0 11.8905 0
    CHANNELS 3 Zrotation Xrotation Yrotation
    JOINT Spine1
    {
      OFFSET 0 25.6574 0.127663
      CHANNELS 3 Zrotation Xrotation Yrotation
      JOINT HEad
      {
        OFFSET 0 8.73416 0.011341
        CHANNELS 3 Zrotation Xrotation Yrotation
        End Site
        {
          OFFSET -0.29 12.7742 2.51395
        }
      }
      JOINT LeftShoulder1
      {
        OFFSET 8.99 -0.362252 -0.22
        CHANNELS 3 Zrotation Xrotation Yrotation
        JOINT LeftArm
        {
          OFFSET 10.2827 -0.00338 0.322123
          CHANNELS 3 Zrotation Xrotation Yrotation
          JOINT LeftForeArm
          {
            OFFSET 32.7669 0.099144 -1.42434
            CHANNELS 3 Zrotation Xrotation Yrotation
            JOINT LeftHand
            {
              OFFSET 27.5643 0.085362 1.02216
              CHANNELS 3 Zrotation Xrotation Yrotation
              End Site
              {
                OFFSET 16.7443 -0.6 1.50291
              }
            }
          }
        }
      }
      JOINT RightShoulder
      {
        OFFSET -8.99 -0.362252 -0.22
        CHANNELS 3 Zrotation Xrotation Yrotation
        JOINT RightArm
        {
          OFFSET -10.2827 -0.00338 0.322123
          CHANNELS 3 Zrotation Xrotation Yrotation
          JOINT RightForeArm
          {
            OFFSET -32.8971 0.099144 -1.42434
            CHANNELS 3 Zrotation Xrotation Yrotation
            JOINT RightHand
            {
              OFFSET -27.4921 0.085362 1.02216
              CHANNELS 3 Zrotation Xrotation Yrotation
              End Site
              {
                OFFSET -16.6312 -0.6 1.50291
              }
            }
          }
        }
      }
    }
  }
  JOINT LeftUpLeg
  {
    OFFSET 8.9458 -8.66707 0.101652
    CHANNELS 3 Zrotation Xrotation Yrotation
    JOINT LeftLeg
    {
      OFFSET 0 -44.4227 1.3727
      CHANNELS 3 Zrotation Xrotation Yrotation
      JOINT LeftFoot
      {
        OFFSET -0.253549 -42.0924 -1.46059
        CHANNELS 3 Zrotation Xrotation Yrotation
        JOINT LeftToes
        {
          OFFSET -0.04 -4.41509 8.4991
          CHANNELS 3 Zrotation Xrotation Yrotation
          End Site
          {
            OFFSET 0.08 -0.047448 9.77979
          }
        }
      }
    }
  }
}
MOTION
Frames:	17
Frame Time:	0.0166667
5.23207 102.716 -193.824 -0.486968 -0.0784903 2.51246 3.59947 4.62863 0.0274212 0.0597112 29.2153 -12.628 7.84521 -5.65372 -0.0248735 0.0462048 0.000533964 0.662642 0.773084 3.53864 -0.502061 -3.30128 -0.19673 0.146295 5.48397 -0.18445 6.06561 1.19271e-015 3.97569e-016 -3.97569e-016 -83.2577 -38.6487 -1.69281 -23.8812 11.3876 0.145515 0.368473 9.90896 -0.00117926 -2.60401 0.459349 3.93856 89.4132 -26.3752 9.82156 21.2246 13.2572 7.50283 -0.369625 9.91382 0.00119886 -1.70039 -27.7949 -0.181298 -0.968246 35.2986 1.20034 -0.349921 -6.43753 0.0270994 6.62133e-013 1.88319e-012 -2.67644e-012 
5.56122 102.967 -192.539 -0.263381 -0.269712 2.60068 3.01167 4.48833 -0.0692897 0.054413 30.7217 -12.5513 8.07547 -3.94225 -0.135013 -2.02463 3.44606 2.68418 0.492759 3.59973 -0.51973 -3.50401 -0.266287 0.15251 5.42465 0.445504 5.86053 1.98785e-016 -3.97569e-016 -0 -83.6104 -37.6744 -2.72051 -24.026 11.4348 -0.161592 0.368473 9.90896 -0.00117926 -2.40557 0.456042 3.68548 88.963 -26.3066 9.33454 21.46 13.2486 7.54326 -0.369625 9.91382 0.00119886 -2.31367 -26.5002 -1.03518 -1.24258 34.9221 1.97986 -0.0134683 -6.8678 0.039104 0.0316498 -0.909728 -0.159142 
5.88171 103.197 -191.271 -0.0394041 -0.440242 2.69162 2.37999 4.1637 -0.096327 0.168283 32.468 -12.5272 8.29425 -2.12171 -0.255701 -3.9527 7.46677 4.46868 0.183886 3.66342 -0.527015 -3.70465 -0.320196 0.159042 5.40906 1.02125 5.6568 -9.19379e-016 -3.97569e-016 -3.97569e-016 -83.9702 -36.6949 -3.82629 -24.1359 11.4822 -0.448071 0.368473 9.90896 -0.00117926 -2.19427 0.452419 3.42415 88.5273 -26.2566 8.88176 21.6689 13.2485 7.62382 -0.369625 9.91382 0.00119886 -2.87676 -25.2596 -1.86815 -1.52319 34.5886 2.73155 0.256136 -7.34609 0.0496739 0.0679811 -1.66533 -0.244535 
6.18261 103.385 -190.046 0.193902 -0.560367 2.79907 1.60741 3.3864 0.12001 0.674584 34.8201 -12.6711 8.50826 0.0453531 -0.412281 -4.83263 13.1824 5.37056 -0.212846 3.73909 -0.506649 -3.91218 -0.345499 0.166479 5.50101 1.52204 5.44216 -1.06847e-015 -1.19271e-015 -0 -84.3989 -35.7327 -5.1631 -24.1404 11.5312 -0.67438 0.368473 9.90896 -0.00117926 -1.91691 0.448447 3.12205 88.0863 -26.2635 8.5061 21.8111 13.2688 7.80597 -0.369625 9.91382 0.00119886 -3.42003 -24.1423 -2.78732 -1.86536 34.3368 3.50988 0.322539 -7.94063 0.0557188 0.116623 -1.95072 -0.160904 
6.46203 103.515 -188.861 0.408371 -0.636589 2.89235 0.828741 2.22404 0.336082 1.29771 37.6317 -12.887 8.63756 2.28273 -0.573874 -5.74459 19.5839 6.45109 -0.634087 3.80895 -0.468873 -4.09145 -0.318481 0.174325 5.66183 1.79097 5.25493 -9.93923e-017 3.97569e-016 3.97569e-016 -84.8769 -34.7152 -6.66986 -24.1126 11.5806 -0.876159 0.368473 9.90896 -0.00117926 -1.68155 0.442988 2.84368 87.7474 -26.2969 8.21192 21.8994 13.3079 8.06604 -0.369625 9.91382 0.00119886 -3.84628 -23.178 -3.47576 -2.19485 34.2428 4.07808 0.326559 -8.63884 0.0606751 0.207775 -2.09779 0.101707 
6.7186 103.561 -187.719 0.555852 -0.665375 2.9399 0.125384 0.628452 0.390049 1.90959 40.9443 -13.1936 8.57005 4.36135 -0.716735 -8.23163 26.1732 9.01624 -1.00764 3.85564 -0.416642 -4.17719 -0.213952 0.180679 5.8856 1.61002 5.14137 -1.01877e-015 0 -3.97569e-016 -85.427 -33.5847 -8.35311 -24.1082 11.6261 -1.06118 0.368473 9.90896 -0.00117926 -1.63477 0.433049 2.66169 87.6563 -26.3445 7.99792 21.9294 13.3726 8.42233 -0.369625 9.91382 0.00119886 -4.04907 -22.4254 -3.56651 -2.43755 34.413 4.12161 0.373907 -9.4764 0.0669673 0.413278 -2.35399 0.710198 
6.9399 103.529 -186.636 0.704748 -0.647153 2.95821 -0.495662 -1.32115 0.213721 2.29816 44.5711 -13.3576 8.38484 6.37739 -0.844471 -11.4373 32.2917 12.1439 -1.41908 3.88718 -0.354565 -4.26885 -0.023382 0.190354 6.12915 1.14102 5.06593 -2.75869e-033 3.97569e-016 3.97569e-016 -85.9491 -32.323 -10.1477 -24.1084 11.6776 -1.27356 0.368473 9.90896 -0.00117926 -1.60778 0.424188 2.51905 87.6826 -26.39 7.92558 21.9116 13.4481 8.8107 -0.369625 9.91382 0.00119886 -4.17015 -21.8762 -3.34673 -2.65196 34.8056 3.93076 0.433998 -10.3767 0.0746145 0.618404 -2.65603 1.28923 
7.10715 103.391 -185.638 0.927096 -0.568547 2.95603 -1.02481 -3.62534 -0.444971 1.92248 48.4349 -12.8632 8.07866 8.56812 -0.959495 -15.2786 37.6218 15.9596 -1.96868 3.90871 -0.284962 -4.47327 0.281607 0.209137 6.33727 0.440741 4.96775 -3.23025e-016 -7.95139e-016 3.97569e-016 -86.336 -30.8426 -11.9908 -24.1262 11.7477 -1.58844 0.368473 9.90896 -0.00117926 -1.44912 0.421895 2.37202 87.7298 -26.4147 8.0857 21.8529 13.5206 9.15775 -0.369625 9.91382 0.00119886 -4.30449 -21.5967 -2.92881 -2.85635 35.4804 3.66242 0.517941 -11.2829 0.0850259 0.69463 -3.03971 1.41749 
7.23807 103.214 -184.69 1.1647 -0.467395 2.92513 -1.50481 -6.0916 -1.20571 1.17393 52.2808 -12.2059 7.78493 10.2814 -1.04059 -16.7531 41.0784 17.4788 -2.53991 3.91152 -0.217666 -4.70346 0.666663 0.232223 6.54833 -0.392965 4.97032 -8.69683e-016 -7.95139e-016 3.97569e-016 -86.6288 -29.3129 -13.8906 -24.1201 11.824 -1.92088 0.368473 9.90896 -0.00117926 -1.25323 0.423366 2.25342 87.8442 -26.4118 8.3896 21.7633 13.596 9.50898 -0.369625 9.91382 0.00119886 -4.40821 -21.4137 -2.43871 -3.07736 36.2313 3.39147 0.606487 -12.1712 0.0964755 0.727922 -3.45743 1.39872 
7.34266 103.055 -183.767 1.39516 -0.383269 2.84225 -1.88635 -8.53306 -1.73611 0.495788 55.8887 -11.6651 7.75578 10.8701 -1.07076 -9.9485 41.1509 11.0397 -3.05607 3.886 -0.16135 -4.91028 1.1362 0.258149 6.83704 -1.22111 5.25242 9.93923e-016 0 1.19271e-015 -86.8636 -27.888 -15.8588 -24.0505 11.9059 -2.24487 0.368473 9.90896 -0.00117926 -1.08348 0.427951 2.19893 88.0782 -26.3571 8.79461 21.6483 13.68 9.90714 -0.369625 9.91382 0.00119886 -4.46789 -21.17 -2.07233 -3.40754 36.8671 3.33161 0.676804 -13.0019 0.107283 0.753208 -3.87342 1.35205 
7.42526 102.919 -182.859 1.58344 -0.297579 2.76117 -2.19734 -10.9364 -2.13651 -0.0585944 59.0388 -11.8536 7.6151 10.5569 -1.03161 -1.98579 38.5335 3.35631 -3.49774 3.83999 -0.121822 -5.08678 1.6023 0.282679 7.07042 -2.10747 5.58588 7.95139e-016 0 -3.97569e-016 -87.044 -26.5174 -17.8624 -23.9261 11.9713 -2.45837 0.368473 9.90896 -0.00117926 -0.881672 0.434679 2.15625 88.3131 -26.2832 9.25186 21.5273 13.7596 10.2872 -0.369625 9.91382 0.00119886 -4.48394 -20.8903 -1.73221 -3.71317 37.4052 3.24768 0.750233 -13.7657 0.118608 0.810081 -4.28709 1.41057 
7.49249 102.837 -181.949 1.67421 -0.19932 2.73552 -2.43487 -13.2297 -2.40493 0.029053 61.3733 -14.186 6.89168 9.14904 -0.86922 1.43206 34.1771 0.0618947 -3.80021 3.77348 -0.113002 -5.21062 1.96051 0.300888 7.05501 -3.14687 5.7445 3.47873e-016 7.95139e-016 7.95139e-016 -87.1727 -25.1923 -19.8904 -23.7338 11.9867 -2.3928 0.368473 9.90896 -0.00117926 -0.5756 0.444489 2.08851 88.4088 -26.2271 9.69037 21.425 13.8255 10.6061 -0.369625 9.91382 0.00119886 -4.44013 -20.5467 -1.36265 -3.86344 37.7838 2.90417 0.849451 -14.4183 0.131497 0.993748 -4.70044 1.86239 
7.54759 102.788 -181.036 1.70477 -0.105375 2.74246 -2.62397 -15.4045 -2.50272 0.888367 62.9422 -17.445 6.16133 7.24451 -0.683769 3.23067 29.2469 -1.70913 -4.02301 3.70043 -0.119204 -5.27756 2.26483 0.313302 7.0042 -4.11112 5.90148 -8.44835e-016 2.38542e-015 7.95139e-016 -87.3033 -23.9454 -21.8928 -23.502 11.9861 -2.22128 0.368473 9.90896 -0.00117926 -0.270629 0.450989 1.9851 88.485 -26.1537 10.1356 21.3331 13.8742 10.84 -0.369625 9.91382 0.00119886 -4.37878 -20.1376 -1.03632 -3.91037 38.0457 2.4965 0.947656 -15.0242 0.144605 1.19406 -5.06867 2.36318 
7.59605 102.769 -180.11 1.68549 -0.0345665 2.78582 -2.79591 -17.441 -2.29622 2.37815 63.7892 -20.4261 5.92434 5.43498 -0.57114 4.75789 25.3468 -3.18364 -4.18091 3.63519 -0.131979 -5.27308 2.55453 0.31955 7.11733 -4.74854 6.19081 3.47873e-016 1.59028e-015 -7.95139e-016 -87.5106 -22.7995 -23.8415 -23.2629 11.992 -2.05917 0.368473 9.90896 -0.00117926 -0.0718147 0.445395 1.80477 88.6614 -26.0354 10.6217 21.2387 13.8939 10.9205 -0.369625 9.91382 0.00119886 -4.3408 -19.6387 -0.808256 -3.83009 38.2045 2.11881 1.01474 -15.6463 0.1559 1.29673 -5.27287 2.61165 
7.63778 102.765 -179.172 1.64204 0.0299391 2.83912 -2.91054 -19.3004 -2.05348 3.84064 63.8878 -22.7959 5.88562 3.54809 -0.478605 5.55329 21.248 -3.97251 -4.34336 3.57659 -0.143545 -5.20581 2.76939 0.31741 7.25799 -5.22255 6.49907 7.95139e-016 7.95139e-016 1.19271e-015 -87.7702 -21.7761 -25.6681 -22.9899 12.005 -1.9115 0.368473 9.90896 -0.00117926 0.0919001 0.435797 1.60262 88.7941 -25.8857 11.0501 21.18 13.9002 10.9382 -0.369625 9.91382 0.00119886 -4.30657 -19.0918 -0.67288 -3.73777 38.2914 1.85126 1.08329 -16.2454 0.168497 1.37413 -5.54067 2.76382 
7.6756 102.753 -178.216 1.61582 0.100731 2.88044 -3.00327 -20.9267 -2.08165 4.58394 63.2637 -23.7067 5.95615 1.57194 -0.383543 5.06858 15.4695 -3.64767 -4.61989 3.53324 -0.136843 -5.0776 2.83921 0.302877 7.35465 -5.58518 6.73805 7.95139e-016 -7.95139e-016 -0 -88.1196 -20.9275 -27.2973 -22.6288 12.0314 -1.7921 0.368473 9.90896 -0.00117926 0.279029 0.428536 1.42362 88.7261 -25.6955 11.3037 21.2122 13.902 10.9566 -0.369625 9.91382 0.00119886 -4.2802 -18.5469 -0.648712 -3.75091 38.3712 1.83622 1.19583 -16.7931 0.18739 1.51505 -6.25977 2.96048 
7.70615 102.759 -177.249 1.57053 0.171743 2.89994 -3.03034 -22.3478 -2.173 4.90226 61.9297 -23.8484 6.02794 -0.383457 -0.292676 4.76072 10.2748 -3.38855 -4.9049 3.49022 -0.131266 -4.89446 2.83316 0.280929 7.4038 -5.92025 6.96762 2.13694e-015 7.95139e-016 -3.97569e-016 -88.4752 -20.1835 -28.7264 -22.2957 12.0767 -1.79006 0.368473 9.90896 -0.00117926 0.422436 0.420097 1.25689 88.6218 -25.5079 11.4749 21.2708 13.9058 10.989 -0.369625 9.91382 0.00119886 -4.22442 -17.9542 -0.716219 -3.83479 38.3596 1.97909 1.29272 -17.3201 0.205007 1.57143 -6.82987 2.94842 
